<?xml version="1.0" encoding="UTF-8" standalone="no"?>
<svg
   xmlns:dc="http://purl.org/dc/elements/1.1/"
   xmlns:cc="http://creativecommons.org/ns#"
   xmlns:rdf="http://www.w3.org/1999/02/22-rdf-syntax-ns#"
   xmlns:svg="http://www.w3.org/2000/svg"
   xmlns="http://www.w3.org/2000/svg"
   xmlns:sodipodi="http://sodipodi.sourceforge.net/DTD/sodipodi-0.dtd"
   xmlns:inkscape="http://www.inkscape.org/namespaces/inkscape"
   width="352"
   height="322"
   version="1.1"
   id="svg14"
   sodipodi:docname="zett-logo.svg"
   inkscape:version="0.92.5 (2060ec1f9f, 2020-04-08)">
  <metadata
     id="metadata20">
    <rdf:RDF>
      <cc:Work
         rdf:about="">
        <dc:format>image/svg+xml</dc:format>
        <dc:type
           rdf:resource="http://purl.org/dc/dcmitype/StillImage" />
      </cc:Work>
    </rdf:RDF>
  </metadata>
  <defs
     id="defs18">
    <filter
       style="color-interpolation-filters:sRGB;"
       inkscape:label="Drop Shadow"
       id="filter1040">
      <feFlood
         flood-opacity="0.498039"
         flood-color="rgb(0,0,0)"
         result="flood"
         id="feFlood1030" />
      <feComposite
         in="flood"
         in2="SourceGraphic"
         operator="in"
         result="composite1"
         id="feComposite1032" />
      <feGaussianBlur
         in="composite1"
         stdDeviation="7"
         result="blur"
         id="feGaussianBlur1034" />
      <feOffset
         dx="1.6"
         dy="2.4"
         result="offset"
         id="feOffset1036" />
      <feComposite
         in="SourceGraphic"
         in2="offset"
         operator="over"
         result="composite2"
         id="feComposite1038" />
    </filter>
  </defs>
  <sodipodi:namedview
     pagecolor="#ffffff"
     bordercolor="#666666"
     borderopacity="1"
     objecttolerance="10"
     gridtolerance="10"
     guidetolerance="10"
     inkscape:pageopacity="0"
     inkscape:pageshadow="2"
     inkscape:window-width="1848"
     inkscape:window-height="1016"
     id="namedview16"
     showgrid="false"
     inkscape:zoom="0.73291925"
     inkscape:cx="-64.817798"
     inkscape:cy="155.54237"
     inkscape:window-x="72"
     inkscape:window-y="27"
     inkscape:window-maximized="1"
     inkscape:current-layer="svg14" />
  <g
     fill-rule="nonzero"
     fill="none"
     transform="scale(1, -1) translate(0, -322)"
     id="g12">
    <path
       d="M87.97296 282.3527L27.24133 177.02207c-5.62041-9.75765-5.62041-21.77908 0-31.53674L87.97296 40.2328c5.64643-9.78367 16.08061-15.79439 27.32143-15.79439h121.3852c11.26684 0 21.72704 6.01072 27.32143 15.7944l60.75765 105.30458c5.62041 9.75766 5.62041 21.77909 0 31.53674l-60.73163 105.33061c-5.64643 9.78367-16.08061 15.79439-27.32143 15.79439H115.37245c-11.31888-.05204-21.72704-6.08878-27.3995-15.84643z"
       fill="#FFF"
       id="path2" />
    <path
       d="M93.15102 275.19708l-57.1148-99.0597c-5.30816-9.1852-5.30816-20.50408 0-29.66326l57.1148-99.08572c5.33418-9.21122 15.14388-14.85765 25.73418-14.85765h114.2296c10.5903 0 20.42602 5.64643 25.73418 14.85765l57.16684 99.03368c5.30816 9.1852 5.30816 20.50408 0 29.66326L258.875 275.2231c-5.33418 9.21122-15.14388 14.85765-25.73418 14.85765H118.93724c-10.64234 0-20.45204-5.67245-25.78622-14.88367z"
       fill="#F2E205"
       id="path4" />
  </g>
  <g
     aria-label="Z"
     transform="matrix(1.3661636,0,0,1,-57.985325,-46.38983)"
     style="font-style:normal;font-weight:normal;font-size:40px;line-height:1.25;font-family:sans-serif;letter-spacing:0px;word-spacing:0px;fill:#000000;fill-opacity:1;stroke:none;filter:url(#filter1040)"
     id="flowRoot854">
    <path
       d="m 219.20886,138.41898 v 4.224 l -56.832,125.76 h 6.528 q 17.28,0 30.336,-10.944 13.248,-11.136 19.008,-31.488 h 3.456 l -2.304,46.848 h -98.304 v -3.648 l 57.408,-126.528 h -7.872 q -17.088,0 -25.92,7.488 -8.832,7.488 -19.968,30.72 h -3.456 l 2.88,-42.432 z"
       style="font-style:normal;font-variant:normal;font-weight:normal;font-stretch:normal;font-size:192px;font-family:'Abril Fatface';-inkscape-font-specification:'Abril Fatface';fill:#ffffff;fill-opacity:1"
       id="path824" />
  </g>
</svg>
